<mxfile host="app.diagrams.net" modified="2021-10-04T10:46:34.706Z" agent="5.0 (Windows NT 10.0; Win64; x64) AppleWebKit/537.36 (KHTML, like Gecko) Chrome/94.0.4606.61 Safari/537.36" etag="BvcCFIfxYl6k0UkXAnU7" version="15.4.1" type="github">
  <diagram id="kgpKYQtTHZ0yAKxKKP6v" name="Page-1">
    <mxGraphModel dx="568" dy="295" grid="1" gridSize="10" guides="1" tooltips="1" connect="1" arrows="1" fold="1" page="1" pageScale="1" pageWidth="850" pageHeight="1100" math="0" shadow="0">
      <root>
        <mxCell id="0" />
        <mxCell id="1" parent="0" />
        <mxCell id="k_9uYJqeVWmNjNhEhS2R-54" value="" style="rounded=0;whiteSpace=wrap;html=1;fillColor=#E6E6E6;" vertex="1" parent="1">
          <mxGeometry width="810" height="360" as="geometry" />
        </mxCell>
        <mxCell id="3nuBFxr9cyL0pnOWT2aG-7" value="Đăng ký thành công" style="verticalAlign=bottom;endArrow=open;dashed=1;endSize=8;shadow=0;strokeWidth=1;exitX=0.02;exitY=0.748;exitDx=0;exitDy=0;exitPerimeter=0;" parent="1" source="k_9uYJqeVWmNjNhEhS2R-14" edge="1">
          <mxGeometry relative="1" as="geometry">
            <mxPoint x="180" y="272" as="targetPoint" />
            <mxPoint x="340" y="240" as="sourcePoint" />
            <Array as="points" />
          </mxGeometry>
        </mxCell>
        <mxCell id="3nuBFxr9cyL0pnOWT2aG-8" value="Chọn lớp học(lớp)" style="verticalAlign=bottom;endArrow=block;shadow=0;strokeWidth=1;entryX=0.14;entryY=0.433;entryDx=0;entryDy=0;entryPerimeter=0;" parent="1" source="3nuBFxr9cyL0pnOWT2aG-2" target="k_9uYJqeVWmNjNhEhS2R-14" edge="1">
          <mxGeometry relative="1" as="geometry">
            <mxPoint x="275" y="160" as="sourcePoint" />
            <mxPoint x="350" y="150" as="targetPoint" />
            <Array as="points" />
          </mxGeometry>
        </mxCell>
        <mxCell id="k_9uYJqeVWmNjNhEhS2R-14" value="" style="points=[];perimeter=orthogonalPerimeter;rounded=0;shadow=0;strokeWidth=1;" vertex="1" parent="1">
          <mxGeometry x="345" y="130" width="10" height="190" as="geometry" />
        </mxCell>
        <mxCell id="k_9uYJqeVWmNjNhEhS2R-15" value="" style="group" vertex="1" connectable="0" parent="1">
          <mxGeometry x="130" y="30" width="70" height="290" as="geometry" />
        </mxCell>
        <mxCell id="3nuBFxr9cyL0pnOWT2aG-2" value="" style="points=[];perimeter=orthogonalPerimeter;rounded=0;shadow=0;strokeWidth=1;" parent="k_9uYJqeVWmNjNhEhS2R-15" vertex="1">
          <mxGeometry x="30" y="100" width="10" height="190" as="geometry" />
        </mxCell>
        <mxCell id="k_9uYJqeVWmNjNhEhS2R-5" value="" style="shape=umlLifeline;participant=umlActor;perimeter=lifelinePerimeter;whiteSpace=wrap;html=1;container=1;collapsible=0;recursiveResize=0;verticalAlign=top;spacingTop=36;outlineConnect=0;" vertex="1" parent="k_9uYJqeVWmNjNhEhS2R-15">
          <mxGeometry x="25" y="30" width="20" height="260" as="geometry" />
        </mxCell>
        <mxCell id="k_9uYJqeVWmNjNhEhS2R-6" value=":Sinh Viên" style="text;html=1;strokeColor=none;fillColor=none;align=center;verticalAlign=middle;whiteSpace=wrap;rounded=0;" vertex="1" parent="k_9uYJqeVWmNjNhEhS2R-15">
          <mxGeometry y="70" width="70" height="30" as="geometry" />
        </mxCell>
        <mxCell id="k_9uYJqeVWmNjNhEhS2R-21" value="" style="points=[];perimeter=orthogonalPerimeter;rounded=0;shadow=0;strokeWidth=1;" vertex="1" parent="1">
          <mxGeometry x="490" y="155" width="10" height="50" as="geometry" />
        </mxCell>
        <mxCell id="k_9uYJqeVWmNjNhEhS2R-23" value=":Web đăng ký học" style="shape=umlLifeline;perimeter=lifelinePerimeter;whiteSpace=wrap;html=1;container=1;collapsible=0;recursiveResize=0;outlineConnect=0;" vertex="1" parent="1">
          <mxGeometry x="295" y="55" width="110" height="265" as="geometry" />
        </mxCell>
        <mxCell id="k_9uYJqeVWmNjNhEhS2R-24" value=":CSDL Sinh viên" style="shape=umlLifeline;perimeter=lifelinePerimeter;whiteSpace=wrap;html=1;container=1;collapsible=0;recursiveResize=0;outlineConnect=0;" vertex="1" parent="1">
          <mxGeometry x="440" y="55" width="110" height="265" as="geometry" />
        </mxCell>
        <mxCell id="k_9uYJqeVWmNjNhEhS2R-26" value=":CSDL môn học" style="shape=umlLifeline;perimeter=lifelinePerimeter;whiteSpace=wrap;html=1;container=1;collapsible=0;recursiveResize=0;outlineConnect=0;" vertex="1" parent="1">
          <mxGeometry x="590" y="55" width="110" height="265" as="geometry" />
        </mxCell>
        <mxCell id="k_9uYJqeVWmNjNhEhS2R-25" value="" style="points=[];perimeter=orthogonalPerimeter;rounded=0;shadow=0;strokeWidth=1;" vertex="1" parent="k_9uYJqeVWmNjNhEhS2R-26">
          <mxGeometry x="50" y="155" width="10" height="50" as="geometry" />
        </mxCell>
        <mxCell id="k_9uYJqeVWmNjNhEhS2R-27" value="Tra mã SV(Mã SV)" style="verticalAlign=bottom;endArrow=block;shadow=0;strokeWidth=1;" edge="1" parent="1" target="k_9uYJqeVWmNjNhEhS2R-21">
          <mxGeometry relative="1" as="geometry">
            <mxPoint x="360" y="160" as="sourcePoint" />
          </mxGeometry>
        </mxCell>
        <mxCell id="k_9uYJqeVWmNjNhEhS2R-29" value="Tra lớp đã full chưa(Lớp)" style="verticalAlign=bottom;endArrow=block;shadow=0;strokeWidth=1;entryX=0.08;entryY=0.472;entryDx=0;entryDy=0;entryPerimeter=0;" edge="1" parent="1" target="k_9uYJqeVWmNjNhEhS2R-25">
          <mxGeometry relative="1" as="geometry">
            <mxPoint x="360" y="234" as="sourcePoint" />
            <mxPoint x="640" y="181" as="targetPoint" />
            <Array as="points">
              <mxPoint x="500" y="234" />
            </Array>
          </mxGeometry>
        </mxCell>
        <mxCell id="k_9uYJqeVWmNjNhEhS2R-34" value="Hiển thị các lớp" style="verticalAlign=bottom;endArrow=open;dashed=1;endSize=8;shadow=0;strokeWidth=1;entryX=1;entryY=0.265;entryDx=0;entryDy=0;entryPerimeter=0;exitX=0.067;exitY=0.272;exitDx=0;exitDy=0;exitPerimeter=0;" edge="1" parent="1" source="k_9uYJqeVWmNjNhEhS2R-14" target="3nuBFxr9cyL0pnOWT2aG-2">
          <mxGeometry relative="1" as="geometry">
            <mxPoint x="275" y="236" as="targetPoint" />
            <mxPoint x="340" y="170" as="sourcePoint" />
            <Array as="points" />
          </mxGeometry>
        </mxCell>
        <mxCell id="k_9uYJqeVWmNjNhEhS2R-36" value="Lớp chưa full" style="verticalAlign=bottom;endArrow=open;dashed=1;endSize=8;shadow=0;strokeWidth=1;exitX=-0.04;exitY=0.944;exitDx=0;exitDy=0;exitPerimeter=0;entryX=1.393;entryY=0.675;entryDx=0;entryDy=0;entryPerimeter=0;" edge="1" parent="1" source="k_9uYJqeVWmNjNhEhS2R-25" target="k_9uYJqeVWmNjNhEhS2R-14">
          <mxGeometry relative="1" as="geometry">
            <mxPoint x="360" y="257" as="targetPoint" />
            <mxPoint x="345.20000000000005" y="224.86" as="sourcePoint" />
            <Array as="points">
              <mxPoint x="501" y="257" />
            </Array>
          </mxGeometry>
        </mxCell>
        <mxCell id="k_9uYJqeVWmNjNhEhS2R-37" value="Hợp lệ" style="verticalAlign=bottom;endArrow=open;dashed=1;endSize=8;shadow=0;strokeWidth=1;exitX=0.014;exitY=0.366;exitDx=0;exitDy=0;exitPerimeter=0;entryX=0.9;entryY=0.226;entryDx=0;entryDy=0;entryPerimeter=0;" edge="1" parent="1" source="k_9uYJqeVWmNjNhEhS2R-21" target="k_9uYJqeVWmNjNhEhS2R-14">
          <mxGeometry relative="1" as="geometry">
            <mxPoint x="360" y="189" as="targetPoint" />
            <mxPoint x="490" y="189" as="sourcePoint" />
            <Array as="points" />
          </mxGeometry>
        </mxCell>
        <mxCell id="k_9uYJqeVWmNjNhEhS2R-39" value="Tra lớp hiện có(môn học, lớp)" style="verticalAlign=bottom;endArrow=block;shadow=0;strokeWidth=1;entryX=0.06;entryY=0.108;entryDx=0;entryDy=0;entryPerimeter=0;" edge="1" parent="1" source="3nuBFxr9cyL0pnOWT2aG-2" target="k_9uYJqeVWmNjNhEhS2R-14">
          <mxGeometry relative="1" as="geometry">
            <mxPoint x="180" y="190" as="sourcePoint" />
            <mxPoint x="340" y="150" as="targetPoint" />
            <Array as="points">
              <mxPoint x="230" y="150" />
            </Array>
          </mxGeometry>
        </mxCell>
        <mxCell id="k_9uYJqeVWmNjNhEhS2R-50" value="" style="verticalLabelPosition=bottom;verticalAlign=top;html=1;shape=card;whiteSpace=wrap;size=20;arcSize=12;direction=west;" vertex="1" parent="1">
          <mxGeometry x="10" y="10" width="100" height="60" as="geometry" />
        </mxCell>
        <mxCell id="k_9uYJqeVWmNjNhEhS2R-51" value=":sd THSD&lt;br&gt;Sinh viên&lt;br&gt;&amp;nbsp;Đăng ký học" style="text;html=1;strokeColor=none;fillColor=none;align=center;verticalAlign=middle;whiteSpace=wrap;rounded=0;" vertex="1" parent="1">
          <mxGeometry x="10" y="10" width="90" height="50" as="geometry" />
        </mxCell>
      </root>
    </mxGraphModel>
  </diagram>
</mxfile>
